# xmcd CD database file
#
# Track frame offsets:
#	150
#	21594
#	47057
#	69162
#	94987
#	123976
#	146092
#	164449
#	187658
#	214174
#	230221
#	254631
#	280111
#	291021
#	321953
#
# Disc length: 4351 seconds
#
# Revision: 0
# Processed by: cddbd v1.4PL0 Copyright (c) Steve Scherf et al.
# Submitted via: CDex 1.50Beta7
#
DISCID=e810fd0f
DTITLE=Goanna - Spirit Returns
DYEAR=1900
DGENRE=Rhythmic Soul
TTITLE0=What else is a Life
TTITLE1=This old Town
TTITLE2=Spiritual Thing
TTITLE3=Just a Feeling
TTITLE4=Angel full of Grace
TTITLE5=Black Women
TTITLE6=Song for East Timor
TTITLE7=Light of Day
TTITLE8=The Day You Were Born
TTITLE9=Feet of Clay
TTITLE10=Singing Your Song
TTITLE11=Sorry
TTITLE12=Walkin' Talkin' Singin' Dancin' in the Land
TTITLE13=garri inda narmi
TTITLE14=Poor Fella My Country
EXTD=
EXTT0=
EXTT1=
EXTT2=
EXTT3=
EXTT4=
EXTT5=
EXTT6=
EXTT7=
EXTT8=
EXTT9=
EXTT10=
EXTT11=
EXTT12=
EXTT13=
EXTT14=
PLAYORDER=
